<svg width="45" height="46" viewBox="0 0 45 46" fill="none" xmlns="http://www.w3.org/2000/svg">
<path fill-rule="evenodd" clip-rule="evenodd" d="M13.385 10.5631C13.3848 10.5522 13.3847 10.5412 13.3847 10.5301V8.31325C13.3847 3.72197 17.4657 0 22.5 0C27.5344 0 31.6154 3.72197 31.6154 8.31325V10.5301C31.6154 10.5412 31.6154 10.5522 31.6152 10.5632C34.7441 10.6488 36.6588 10.9566 38.1204 12.063C40.1457 13.5959 40.679 16.1906 41.7461 21.3801L43.5692 30.2476C45.0695 37.5449 45.8194 41.1934 43.6324 43.5967C41.4455 46 37.3751 46 29.2342 46H15.7657C7.6249 46 3.5545 46 1.36751 43.5967C-0.819499 41.1934 -0.0693635 37.5449 1.43088 30.2476L3.25396 21.3801C4.32085 16.1906 4.85431 13.5959 6.87958 12.063C8.34132 10.9566 10.256 10.6488 13.385 10.5631ZM17.0308 8.31325C17.0308 5.55848 19.4796 3.3253 22.5 3.3253C25.5205 3.3253 27.9693 5.55848 27.9693 8.31325V10.5301C27.9693 10.5301 27.9693 10.5301 27.9693 10.5301C27.7862 10.5301 27.6003 10.5301 27.4112 10.5301H17.5888C17.3997 10.5301 17.2138 10.5301 17.0308 10.5302V8.31325ZM31.5909 21.3413C31.4253 20.4355 30.4861 19.8237 29.4929 19.9746C28.4997 20.1256 27.8288 20.9822 27.9943 21.888L30.4251 35.1892C30.5906 36.095 31.5299 36.7069 32.5231 36.5559C33.5163 36.405 34.1872 35.5484 34.0217 34.6425L31.5909 21.3413ZM15.5071 19.9746C14.514 19.8237 13.5747 20.4355 13.4091 21.3413L10.9784 34.6425C10.8129 35.5484 11.4838 36.405 12.4769 36.5559C13.4701 36.7069 14.4094 36.095 14.5749 35.1892L17.0057 21.888C17.1712 20.9822 16.5003 20.1256 15.5071 19.9746Z" fill="#BBAE9B"/>
</svg>
