<svg width="41" height="36" viewBox="0 0 41 36" fill="none" xmlns="http://www.w3.org/2000/svg">
<path fill-rule="evenodd" clip-rule="evenodd" d="M2.95529 27.3717L0.103237 34.0447C-0.00627987 34.3015 -0.0292363 34.5805 0.0371104 34.8485C0.103457 35.1164 0.256303 35.3619 0.477392 35.5557C0.698482 35.7495 0.978472 35.8834 1.28392 35.9413C1.58937 35.9992 1.90738 35.9788 2.19995 35.8824L9.80325 33.3801C10.6735 33.0941 11.4639 32.648 12.1214 32.0718L34.1455 12.748C34.1455 12.748 33.3772 10.7274 31.0764 8.70686C28.7757 6.68821 26.4706 6.01406 26.4706 6.01406L4.44643 25.3379C3.78966 25.9147 3.28123 26.6082 2.95529 27.3717ZM29.5419 3.31935L32.5437 0.685588C33.082 0.213301 33.8004 -0.0875923 34.5514 0.022862C35.6084 0.175213 37.2255 0.636074 38.7492 1.97486C40.275 3.31364 40.8003 4.7305 40.9739 5.65794C41.0998 6.31685 40.7569 6.94721 40.2186 7.41949L37.2146 10.0533C37.2146 10.0533 36.4484 8.03461 34.1455 6.01596C31.8448 3.9935 29.5419 3.31935 29.5419 3.31935Z" fill="#191F25"/>
</svg>
