<svg width="66" height="50" viewBox="0 0 66 50" fill="none" xmlns="http://www.w3.org/2000/svg">
<path d="M14.8667 1C7.25837 1 1 5.69378 1 11.4V38.6C1 44.3062 7.25837 49 14.8667 49H33.1683C40.2356 49 46.1345 44.9494 46.9383 39.8H38.2731C37.621 41.4528 35.635 42.6 33.1683 42.6H14.8667C11.8382 42.6 9.53333 40.8713 9.53333 38.6V11.4C9.53333 9.12866 11.8382 7.4 14.8667 7.4H33.1683C35.635 7.4 37.621 8.54718 38.2731 10.2H46.9383C46.1345 5.05064 40.2356 1 33.1683 1H14.8667Z" fill="#191F25" stroke="#191F25" stroke-linecap="round" stroke-linejoin="round"/>
<path d="M51.8652 15.3999C51.3049 15.3999 50.75 15.4826 50.2324 15.6434C49.7147 15.8042 49.2443 16.0399 48.8481 16.3371C48.4519 16.6342 48.1376 16.987 47.9231 17.3753C47.7087 17.7635 47.5983 18.1797 47.5983 18.5999C47.5983 19.0201 47.7087 19.4363 47.9231 19.8245C48.1376 20.2128 48.4519 20.5656 48.8481 20.8627L50.0977 21.7999H18.4639C17.3323 21.7999 16.2471 22.137 15.4469 22.7372C14.6468 23.3373 14.1973 24.1512 14.1973 24.9999C14.1973 25.8486 14.6468 26.6625 15.4469 27.2626C16.2471 27.8628 17.3323 28.1999 18.4639 28.1999H50.0977L48.8481 29.1371C48.4519 29.4342 48.1376 29.787 47.9231 30.1753C47.7087 30.5635 47.5983 30.9797 47.5983 31.3999C47.5983 31.8201 47.7087 32.2363 47.9231 32.6245C48.1376 33.0128 48.4519 33.3656 48.8481 33.6627C49.2443 33.9599 49.7147 34.1956 50.2323 34.3564C50.75 34.5173 51.3049 34.6 51.8652 34.6C52.4255 34.6 52.9804 34.5173 53.498 34.3564C54.0157 34.1956 54.4861 33.9599 54.8823 33.6627L62.6466 27.8394C63.3498 27.5748 63.9417 27.1696 64.357 26.6685C64.7722 26.1674 64.9947 25.5899 64.9998 24.9999C64.9988 24.4009 64.7736 23.8141 64.3498 23.3063C63.9261 22.7985 63.3208 22.3901 62.6029 22.1276L54.8823 16.3371C54.4861 16.0399 54.0157 15.8042 53.498 15.6434C52.9803 15.4826 52.4255 15.3999 51.8652 15.3999Z" fill="#191F25" stroke="#191F25" stroke-linecap="round"/>
</svg>
