<svg width="44" height="44" viewBox="0 0 44 44" fill="none" xmlns="http://www.w3.org/2000/svg">
<g id="Frame">
<g id="SVGRepo_iconCarrier">
<g id="Icons">
<g id="Color-">
<path id="LinkedIn" fill-rule="evenodd" clip-rule="evenodd" d="M44 42H34.2754V27.9384C34.2754 24.2578 32.7543 21.7451 29.4092 21.7451C26.8507 21.7451 25.4278 23.4407 24.7655 25.0749C24.5171 25.6614 24.556 26.4784 24.556 27.2955V42H14.9219C14.9219 42 15.0461 17.0913 14.9219 14.8271H24.556V19.0916C25.1251 17.227 28.2036 14.5658 33.1164 14.5658C39.2114 14.5658 44 18.4744 44 26.8908V42ZM5.1792 11.4282H5.11713C2.01271 11.4282 0 9.35095 0 6.71793C0 4.03367 2.0722 2 5.23871 2C8.40263 2 10.3481 4.02857 10.4102 6.71027C10.4102 9.34329 8.40262 11.4282 5.1792 11.4282ZM1.1098 14.8271H9.68579V42H1.1098V14.8271Z" fill="#007EBB"/>
</g>
</g>
</g>
</g>
</svg>
